<?xml version="1.0" encoding="utf-8"?><svg fill="none" viewBox="0 0 1000 1000" xmlns="http://www.w3.org/2000/svg"><defs /><g transform="matrix(1,0,0,1,499.922,469.403)" visibility="hidden" id="vs code5"><animate repeatCount="indefinite" begin="0.083s" calcMode="discrete" fill="freeze" dur="1.633s" values="visible; hidden" keyTimes="0; 1" attributeName="visibility" /><g id="Group 1"><path fill="#0065a9" fill-opacity="1" d="M15.02,-84.263L-20.228,-89.663C-26.334,-92.602,-29.631,-92.36,-34.422,-87.567L-21.598,4.371C-25.951,8.34,-26.262,15.086,-22.293,19.439C-22.068,19.685,-21.833,19.921,-21.586,20.145L-7.482,32.967C-3.68,36.424,2.046,36.679,6.14,33.573L7.082,-77.677C14.058,-82.969,24.078,-77.993,24.078,-69.237L24.078,-69.849C24.078,-75.995,20.557,-81.598,15.02,-84.265L15.02,-84.263Z" /></g></g><g transform="matrix(1,0,0,1,499.922,530.596)" visibility="hidden" id="vs code4"><animate repeatCount="indefinite" begin="0.083s" calcMode="discrete" fill="freeze" dur="1.633s" values="visible; hidden" keyTimes="0; 1" attributeName="visibility" /><g id="Group 1"><path fill="#007acc" fill-opacity="1" d="M13.02,49.766L-14.228,90.662C-20.334,93.602,-31.13,92.862,-35.922,88.07L-16.598,0.63C-20.951,-3.339,-21.262,-10.085,-17.293,-14.438C-17.068,-14.684,-16.833,-14.92,-16.586,-15.144L-2.482,-27.966C1.32,-31.423,7.046,-31.678,11.14,-28.572L5.082,43.176C12.058,48.47,22.078,43.494,22.078,34.738L22.078,35.35C22.078,41.496,18.557,47.099,13.02,49.766Z" /></g></g><g visibility="hidden" id="vs code3"><animate repeatCount="indefinite" begin="0.083s" calcMode="discrete" fill="freeze" dur="1.633s" values="visible; hidden" keyTimes="0; 1" attributeName="visibility" /><g transform="translate(497,502)"><animateTransform repeatCount="indefinite" type="translate" attributeName="transform" dur="1.633s" begin="0.083s" calcMode="spline" values="497 502; 598 502; 598 502; 497 502" keyTimes="0; 0.306; 0.694; 1" keySplines="0.77 0 0.23 1; 0 0 1 1; 0.77 0 0.23 1" fill="freeze" /><g transform="scale(1,1) translate(-10,-2)"><g id="Group 1"><path fill="#1f9cf0" fill-opacity="1" d="M-21.804,125.764C-23.838,125.927,-24.23,121.093,-24.277,116C-24.298,113.715,-24.25,111.378,-24.25,109.416C-24,118.25,-24.25,110.138,-24.25,101.788L-24,-116.04C-24,-124.39,-24,-111.5,-24,-105.166C-24,-111.25,-26.25,-125.75,-19.804,-125.514L32.934,-125.4C38.476,-122.735,42,-117.129,42,-110.98L43,111.984C43,118.133,39.476,123.739,33.934,126.404L-21.804,125.766L-21.804,125.764Z" /></g></g></g></g><g id="vs code2"><animate repeatCount="indefinite" begin="0s" calcMode="discrete" fill="freeze" dur="0.1s" values="visible; hidden" keyTimes="0; 1" attributeName="visibility" /><g transform="translate(500,500)"><g transform="scale(1,0.3)"><animateTransform repeatCount="indefinite" type="scale" attributeName="transform" dur="0.083s" begin="0s" calcMode="spline" values="1 0.3; 0.938 1" keyTimes="0; 1" keySplines="1 0 0 1" fill="freeze" /><g transform="translate(0,0)"><g id="Rectangle 1" transform="matrix(1.167,0,0,1.016,-5,0)"><rect ry="8" rx="8" height="247" width="60" y="0" x="0" stroke-linejoin="miter" stroke-linecap="butt" stroke-width="0" stroke-opacity="1" stroke="#ffffff" fill="#1f9cf0" fill-opacity="1" /></g></g></g></g></g><g visibility="hidden" id="vs code1"><animate repeatCount="indefinite" begin="1.717s" calcMode="discrete" fill="freeze" dur="0.25s" values="visible; visible" keyTimes="0; 1" attributeName="visibility" /><g transform="translate(500,500)"><g transform="scale(0.938,1)"><animateTransform repeatCount="indefinite" type="scale" attributeName="transform" dur="0.25s" begin="1.717s" calcMode="spline" values="0.938 1; 1 0.3" keyTimes="0; 1" keySplines="1 0 0 1" fill="freeze" /><g transform="translate(0,0)"><g id="Rectangle 1" transform="matrix(1.167,0,0,1.016,-5,0)"><rect ry="8" rx="8" height="247" width="60" y="0" x="0" stroke-linejoin="miter" stroke-linecap="butt" stroke-width="0" stroke-opacity="1" stroke="#ffffff" fill="#1f9cf0" fill-opacity="1" /></g></g></g></g></g></svg>